<svg width="42" height="42" viewBox="0 0 42 42" fill="none" xmlns="http://www.w3.org/2000/svg">
<path d="M32.5574 17.3727C31.2787 20.7136 31.082 24.15 31.9673 27.3C32.5574 29.4954 33.7378 31.5954 35.2132 33.5045L36.3935 34.8409L36.7869 35.2227L37.5738 34.3636C37.5738 34.2682 37.6722 34.2682 37.7705 34.1727C37.9673 33.9818 38.0656 33.7909 38.2624 33.5045L38.6558 32.9318L38.164 32.3591C38.0656 32.2636 37.8689 32.0727 37.7705 31.8818C36.2951 30.1636 35.3115 28.2545 34.8197 26.25C34.1312 23.6727 34.2296 20.9045 35.3115 18.1364C36.1968 15.8454 37.2787 11.1682 34.8197 5.53635L34.7214 5.34543L34.4263 5.05907C34.3279 5.05907 34.3279 4.96361 34.2296 4.86815C33.6394 4.39088 33.0492 3.91361 32.3607 3.5318L29.3115 1.6227L31.082 4.67726C33.6394 9.16363 34.1312 13.2682 32.5574 17.3727Z" fill="#F4F4F4"/>
<path d="M21.9344 30.45C21.2459 27.8727 21.3442 25.1045 22.4262 22.3364C23.6065 19.2818 25.2787 11.4545 17.1147 2.67272L15.6393 1.24091L15.541 1.14545L15.1475 0.763634L14.6557 0.954554C14.2623 1.05001 13.7705 1.24092 13.2787 1.43183L11.9016 1.9091L12.8852 2.86365C13.0819 2.9591 13.1803 3.15001 13.377 3.34092C17.8033 7.54092 22.3279 14.0318 19.5738 21.4773C18.2951 24.8182 18.0983 28.2545 18.9836 31.4045C19.8688 34.4591 21.541 37.1318 23.9016 39.6136H23.8033L25.377 41.0455C25.4754 41.0455 25.4754 41.1409 25.5738 41.2364L25.8688 41.5227L26.2623 41.4273C26.7541 41.3318 27.2459 41.1409 27.7377 41.0455L29.3115 40.4727L28.0328 39.5182C27.8361 39.4227 27.7377 39.2318 27.541 39.1364C25.6721 37.1318 23.0164 34.3636 21.9344 30.45Z" fill="#F4F4F4"/>
<path d="M20.164 39.7091C17.8033 37.5136 16.3279 35.0318 15.541 32.3591C14.8525 29.7818 14.9509 27.0136 16.0328 24.2454C19.2787 15.6545 13.9673 8.20907 11.1148 4.96362L9.83613 3.72272L9.44266 3.24545L8.85252 3.62726C8.55744 3.91363 8.16399 4.10452 7.77055 4.39089L6.98364 4.96362L7.67218 5.63181C7.77054 5.72727 7.96726 5.91817 8.06562 6.01363C12 10.0227 16.0328 16.2273 13.2788 23.2909C12.0001 26.6318 11.8033 30.0682 12.6886 33.2182C13.2787 35.2227 14.2623 37.1318 15.541 39.0409L17.2132 41.0455C17.4099 41.2364 17.5083 41.3318 17.705 41.5227L17.9017 41.7136H18.1968C18.8853 41.8091 19.5738 41.8091 20.164 41.9045L22.623 42L20.8525 40.3773C20.6558 40.1864 20.3607 39.9954 20.164 39.7091Z" fill="#F4F4F4"/>
<path d="M39.2459 14.6045L39.836 14.7954L39.2459 14.6045C39.1475 14.8909 39.0491 15.0818 38.9508 15.3682C37.6721 18.7091 37.4754 22.1454 38.3606 25.2954C38.5573 25.9636 38.754 26.6318 39.0491 27.3L40.1311 29.5909L40.4262 30.1636L41.1147 28.2545C41.3114 27.6818 41.5081 27.1091 41.7049 26.5363L41.8032 26.25L41.7049 25.9636C41.6065 25.6772 41.4098 25.3909 41.4098 25.1045C41.4098 24.9136 41.3114 24.7227 41.2131 24.5318C40.6229 22.2409 40.6229 19.7591 41.5081 17.0864C41.6065 16.8 41.7049 16.6091 41.8032 16.3227L41.9999 15.8454L41.9016 15.5591C41.7048 14.8909 41.5081 14.1272 41.2131 13.5545L40.2295 10.8818L39.5409 13.65C39.4426 13.9363 39.3442 14.3182 39.2459 14.6045Z" fill="#F4F4F4"/>
<path d="M18.8853 -8.70011e-06L20.3607 1.43181C20.5574 1.62272 20.7541 1.8136 20.9508 2.00451C24.7869 5.91815 28.918 12.2182 26.1639 19.2818C24.8853 22.6227 24.6886 26.0591 25.5738 29.2091C26.459 32.1682 28.0328 34.8409 30.3935 37.2273L31.7705 38.4682L32.2623 38.85L32.8525 38.4682C33.2459 38.1818 33.541 37.9909 33.9345 37.8L34.8197 37.2273L33.9345 36.5591C33.8361 36.4636 33.6394 36.2727 33.541 36.1773C30.9836 33.8864 29.4098 31.4045 28.623 28.5409C27.9344 25.9636 28.0328 23.1954 29.1148 20.4273C30 18.0409 30.2951 15.5591 30 13.0772C29.5082 8.68634 26.9508 4.29542 24.0984 1.04997C23.9017 0.859059 23.8033 0.668173 23.6066 0.477264L23.3115 0.190883H23.0164C22.4263 0.190883 21.7377 0.0954225 21.1476 0.0954225L18.8853 -8.70011e-06Z" fill="#F4F4F4"/>
<path d="M9.83603 36.2727L9.24586 36.5591L9.83603 36.2727C9.54095 35.7 9.34422 35.0318 9.1475 34.4591C8.45897 31.8818 8.55733 29.1136 9.6393 26.3454C10.3278 24.5318 10.6229 22.7182 10.6229 20.7136C10.6229 16.7045 9.1475 12.6954 6.29504 8.97272L5.1147 7.5409L4.72126 7.06363L4.03273 7.92271C3.73765 8.20908 3.44258 8.5909 3.24585 8.97272L2.85242 9.54545L3.24585 10.0227C3.34421 10.2136 3.54093 10.3091 3.63929 10.5C7.57372 15.5591 8.6557 20.6182 6.78684 25.3909C5.50816 28.8272 5.21307 32.2636 6.29504 35.7C6.3934 35.9864 6.49175 36.2727 6.59011 36.6545L6.68848 36.8454L6.98355 37.1318C7.08191 37.1318 7.08192 37.2272 7.18028 37.3227C7.77045 37.7045 8.26226 38.1818 8.85243 38.5636L11.7049 40.3773L10.1311 37.4182C10.1311 36.9409 9.93439 36.5591 9.83603 36.2727Z" fill="#F4F4F4"/>
<path d="M3.14752 28.4454L3.24589 28.1591C3.73769 26.9182 4.2295 25.0091 4.2295 22.6227C4.2295 20.1409 3.63933 17.7545 2.65572 15.3682L1.18031 12.4091L0.491804 14.4136C0.295082 14.9863 0.0983607 15.5591 0 16.2273L0 16.5136L0.0983367 16.8C0.196697 17.0863 0.393443 17.3727 0.491804 17.6591C1.57377 20.5227 1.77049 23.3864 0.983607 26.1545C0.885246 26.4409 0.786868 26.7273 0.688507 27.0136L0.59014 27.3L0.688507 27.5864C0.885228 28.1591 1.08196 28.7318 1.37704 29.3045L2.36065 31.5L3.04916 29.2091C2.9508 29.0182 3.04916 28.7318 3.14752 28.4454Z" fill="#F4F4F4"/>
</svg>
