<svg width="80" height="40" viewBox="0 0 110 30" fill="none" xmlns="http://www.w3.org/2000/svg">
<path d="M13.82 29.456C5.726 29.456 0.482 23.832 0.482 15.13C0.482 6.504 5.916 0.765999 14.048 0.765999C20.622 0.765999 25.524 4.604 26.474 10.57H21.344C20.394 7.34 17.62 5.44 13.934 5.44C8.804 5.44 5.574 9.164 5.574 15.092C5.574 20.982 8.842 24.782 13.934 24.782C17.696 24.782 20.584 22.806 21.496 19.728H26.55C25.486 25.58 20.394 29.456 13.82 29.456ZM34.6829 29.494C30.6929 29.494 28.2609 27.176 28.2609 23.642C28.2609 20.184 30.7689 18.018 35.2149 17.676L40.8389 17.258V16.84C40.8389 14.294 39.3189 13.268 36.9629 13.268C34.2269 13.268 32.7069 14.408 32.7069 16.384H28.7549C28.7549 12.318 32.0989 9.658 37.1909 9.658C42.2449 9.658 45.3609 12.394 45.3609 17.6V29H41.2949L40.9529 26.226C40.1549 28.164 37.6089 29.494 34.6829 29.494ZM36.2029 25.998C39.0529 25.998 40.8769 24.288 40.8769 21.4V20.412L36.9629 20.716C34.0749 20.982 32.9729 21.932 32.9729 23.452C32.9729 25.162 34.1129 25.998 36.2029 25.998ZM53.8292 29H49.2312V0.727999H53.8292V29ZM62.5684 29H57.9324V10.228H62.1884L62.5684 12.432C63.5184 10.874 65.4184 9.658 68.1164 9.658C70.9664 9.658 72.9424 11.064 73.9304 13.23C74.8804 11.064 77.0844 9.658 79.9344 9.658C84.4944 9.658 87.0024 12.394 87.0024 16.726V29H82.4044V17.942C82.4044 15.244 80.9604 13.838 78.7564 13.838C76.5144 13.838 74.8044 15.282 74.8044 18.36V29H70.1684V17.904C70.1684 15.282 68.7624 13.876 66.5584 13.876C64.3544 13.876 62.5684 15.32 62.5684 18.36V29ZM89.6915 19.576C89.6915 13.724 93.9095 9.696 99.7235 9.696C105.537 9.696 109.755 13.724 109.755 19.576C109.755 25.428 105.537 29.456 99.7235 29.456C93.9095 29.456 89.6915 25.428 89.6915 19.576ZM94.3275 19.576C94.3275 22.996 96.5315 25.314 99.7235 25.314C102.915 25.314 105.119 22.996 105.119 19.576C105.119 16.156 102.915 13.838 99.7235 13.838C96.5315 13.838 94.3275 16.156 94.3275 19.576Z" fill="black"/>
</svg>
