<svg xmlns="http://www.w3.org/2000/svg" viewBox="0 0 98 96" width="100%" height="100%">
  <rect width="98" height="96" fill="#000000" rx="10" />
  <path fill-rule="evenodd" clip-rule="evenodd" d="M48.854 20C31.839 20 18 33.85 18 51.217c0 13.917 8.993 25.731 21.405 29.91 1.527.31 2.116-.658 2.116-1.462 0-.73-.051-3.235-.051-5.851-8.69 1.88-10.52-3.76-10.52-3.76-1.384-3.65-3.42-4.595-3.42-4.595-2.848-1.932.224-1.932.224-1.932 3.134.209 4.823 3.235 4.823 3.235 2.767 4.804 7.304 3.446 9.14 2.61.254-2.038 1.099-3.446 1.974-4.228-6.939-.73-14.243-3.446-14.243-15.571 0-3.446 1.24-6.267 3.214-8.46-.31-.782-1.384-4.02.31-8.358 0 0 2.625-.835 8.626 3.235a29.93 29.93 0 0 1 7.814-1.045c2.625 0 5.3.366 7.813 1.045 6.001-4.07 8.626-3.235 8.626-3.235 1.7 4.338.626 7.576.316 8.358 2.024 2.193 3.214 5.014 3.214 8.46 0 12.125-7.354 14.79-14.343 15.571 1.15 1.045 2.125 2.972 2.125 5.851 0 4.228-.05 7.628-.05 8.67 0 .835.56 1.83 2.116 1.513C71.007 76.999 80 65.134 80 51.217 80 33.85 66.111 20 48.854 20z" fill="#FFFFFF"/>
</svg> 